<svg xmlns="http://www.w3.org/2000/svg" viewBox="0 0 176 49"><defs><style>.cls-1{fill:#d8322b;}.cls-2{fill:#fff;}.cls-3{fill:#4c4e53;}.cls-4{fill:none;}</style></defs><g id="Layer_2" data-name="Layer 2"><g id="Layer_1-2" data-name="Layer 1"><path class="cls-1" d="M32.06,7h.48c.53.45,1.09.85,1.63,1.28l3.94,3.07h0l4.52,3.53h0c.13.11.34.21.27.41q-1.11,9.45-2.24,18.91l-.16.08-.17.05-.38.08-.17.08h0l-.16.08h-.07l-.17.09H39.2l-.16.08H39l-.17.08h-.16l-.17.08h-.06l-.17.08H38.1l-.17.08h-.07l-.16.08h-.14l-.17.08h-.07l-.17.08H37l-.17.08-.38.08-.16.07-.38.08-.19.07H35.6l-.16.08h-.07l-.17.09h-.14l-.17.08h-.06l-.17.08h-.12l-.17.08H34.3l-.16.08H34l-.17.08h-.09l-.17.08h-.13l-.17.08H33.2l-.17.08h-.14l-.16.08-.38.08-.16.07-.38.08-.17.08H31.5l-.17.08h-.06L31.1,37H31l-.17.08h-.05l-.17.08h-.13l-.17.08H30.2l-.16.08H29.9l-.17.08-.37.08-.17.08-.38.08-.17.07h-.06l-.17.09h-.14l-.17.07-.37.08-.17.08h-.14l-.17.07h-.06l-.17.08h-.14l-.17.08h-.07l-.16.08h-.14l-.17.08H26.1l-.17.09h-.14l-.16.08h-.07l-.17.08h-.14l-.16.08-.38.08-.16.07-.38.08-.17.08h-.14l-.17.08h-.06l-.17.08h-.14l-.17.08h-.07l-.16.08h-.18l-.17.08h0l-.16.08h-.14l-.17.08H22l-.17.09h-.09l-.16.08h-.07l-.17.08H21.2L21,40l-.38.08-.17.07-.37.08-.17.08h-.21l-.17.08H19.5l-.16.09a.44.44,0,0,1-.25-.08L19,40.21v-.07L19,40v-.07l-.08-.16v-.07l-.08-.16a2.57,2.57,0,0,0-.08-.38L18.62,39v-.06l-.08-.17v-.06l-.08-.17v-.07l-.09-.16v-.07l-.08-.16V38l-.09-.17v-.15l-.08-.16v-.07L18,37.27,18,36.9a.56.56,0,0,0-.09-.17v-.07l-.08-.16v-.07l-.09-.17V36.2L17.61,36V36l-.09-.16v-.14l-.08-.16v-.07l-.09-.17V35.2L17.27,35l.07-.37-.08-.17v-.06l-.09-.17v-.07L17.09,34V34a.56.56,0,0,1-.09-.17v-.06l-.08-.17v-.07l-.08-.16v-.07l-.08-.16V33l-.08-.17-.09-.37-.08-.16v-.07l-.08-.17V32l-.08-.17v-.27l-.08-.16v-.07l-.08-.17v-.07L16.11,31l-.18-.59-.07-.17v-.07L15.78,30v-.07l-.09-.17v-.06l-.08-.17v-.07l-.09-.16v-.07L15.44,29a.48.48,0,0,0-.07-.3l-.08-.16-.09-.37L15.12,28V28a.56.56,0,0,0-.09-.17v-.07L15,27.56v-.07l-.08-.16q-1.09-6.55-2.2-13.1c-.25-1.54-.54-3.07-.77-4.62.13-.1.32-.06.48-.1L31.59,7A.31.31,0,0,0,32,7Zm-17.8,4.27a4.1,4.1,0,0,0,.32.82c.28.65.53,1.32.84,2a7.35,7.35,0,0,0,1-.13L27,12.41a8.63,8.63,0,0,1,1.23-.16c1.55,1.56,3.06,3.16,4.6,4.72a7.9,7.9,0,0,0,.83-.12c2.24-.39,4.48-.81,6.72-1.19-.31-.3-.68-.54-1-.81L32.23,9.29c-.16-.12-.3-.31-.52-.26ZM27.8,17.44l-11.46,2v.06c.37,1,.77,2.05,1.15,3.08a7.23,7.23,0,0,0,1.13-.2l5.21-1c.09,0,.23-.06.28.06.44.79.91,1.57,1.36,2.35a2.44,2.44,0,0,0,.28.43,3.39,3.39,0,0,0,.77-.15c2.08-.44,4.17-.87,6.25-1.33,0-.1-.08-.16-.13-.24-1.31-1.6-2.61-3.22-3.91-4.83-.1-.1-.17-.26-.3-.33s-.43.07-.63.1ZM22.39,27.57c-1.33.32-2.68.59-4,.93.36,1,.74,2.09,1.08,3.14,0,.09.08.26.21.19,2.14-.51,4.27-1.06,6.41-1.58a3.41,3.41,0,0,0-.29-.61c-.42-.84-.86-1.67-1.28-2.52-.73.08-1.42.33-2.13.45Z"/><path class="cls-2" d="M14.26,11.25,31.74,9c.22-.05.36.14.52.26l7.13,5.56c.33.27.7.51,1,.81-2.24.38-4.48.8-6.72,1.19-.28,0-.55.11-.83.12-1.54-1.56-3-3.16-4.6-4.72a8.63,8.63,0,0,0-1.23.16L16.45,13.9c-.34,0-.69.12-1,.13-.31-.64-.56-1.31-.84-2A4.54,4.54,0,0,1,14.26,11.25Z"/><path class="cls-2" d="M27.8,17.44c.2,0,.4-.08.6-.09s.2.23.3.33c1.3,1.61,2.6,3.23,3.91,4.83,0,.08.15.14.13.24-2.08.46-4.17.89-6.25,1.33a3.39,3.39,0,0,1-.77.15,2.44,2.44,0,0,1-.28-.43c-.45-.78-.92-1.56-1.36-2.35,0-.12-.19-.07-.28-.06l-5.21,1a7.23,7.23,0,0,1-1.13.2c-.38-1-.78-2.05-1.15-3.08v-.06Z"/><path class="cls-2" d="M22.39,27.57c.71-.12,1.4-.37,2.12-.45.42.85.86,1.68,1.28,2.52a3.41,3.41,0,0,1,.29.61c-2.14.52-4.27,1.07-6.41,1.58-.13.07-.18-.1-.21-.19-.34-1-.72-2.09-1.08-3.14C19.74,28.16,21.06,27.89,22.39,27.57Z"/><path class="cls-3" d="M53.87,13.73h2.65a4.79,4.79,0,0,1,1,.11.31.31,0,0,0,.23,0H58a.26.26,0,0,0,.22.07,1.49,1.49,0,0,1,.47.07,12.21,12.21,0,0,1,2.35.85,5.74,5.74,0,0,1-.13,1.24.77.77,0,0,0,0,.37v.25a.77.77,0,0,0,0,.37.86.86,0,0,1,0,.32.81.81,0,0,0,0,.38V18a.81.81,0,0,0,0,.38.58.58,0,0,1,0,.32.77.77,0,0,0,0,.37v.08h-.07a13.66,13.66,0,0,0-3.65-1.43.28.28,0,0,0-.23-.07,3.08,3.08,0,0,1-.68-.08,4.57,4.57,0,0,0-1.28,0h-.22a.28.28,0,0,0-.22.05,2.52,2.52,0,0,0-.82.45,1.44,1.44,0,0,0-.37.57l0,.16a1.66,1.66,0,0,0,.47,1.47,9.2,9.2,0,0,0,2.67,1.35,15,15,0,0,1,4.29,2.2,4.51,4.51,0,0,1,1.7,2.73.29.29,0,0,0,.06.22,7.41,7.41,0,0,1,.08,1.94,2.15,2.15,0,0,1-.08.62.28.28,0,0,0,0,.23,5.24,5.24,0,0,1-1,2.29A6.16,6.16,0,0,1,58.14,34H58l-.15.06H57.7l-.16.07h-.23a.27.27,0,0,0-.23.05h-.25a1.15,1.15,0,0,0-.37,0,7.37,7.37,0,0,1-1.24.07,10.85,10.85,0,0,1-1.4-.07,1.46,1.46,0,0,0-.51,0,3.09,3.09,0,0,1-.8-.11.32.32,0,0,0-.23-.05h-.23a.24.24,0,0,0-.23-.06h-.16a.26.26,0,0,0-.22-.07,1.09,1.09,0,0,1-.47-.09l-.16-.06a15.48,15.48,0,0,1-2.38-.8v-.26c0-.42.08-.82.12-1.24a7.34,7.34,0,0,1,.14-.94,1.15,1.15,0,0,0,0-.37,11.12,11.12,0,0,1,.18-1.57H49a20.41,20.41,0,0,0,2.69,1.13c.39.14.79.24,1.19.36h.31a.24.24,0,0,0,.23.06h.23a.23.23,0,0,0,.22.06h.25a.48.48,0,0,0,.29,0H56a.29.29,0,0,0,.22-.06,3.06,3.06,0,0,0,1-.43,1.66,1.66,0,0,0,.58-1,1.89,1.89,0,0,0,0-.82c-.18-.77-.92-1.18-1.58-1.51-1.58-.77-3.29-1.24-4.81-2.14A5.65,5.65,0,0,1,49,21.9a2.7,2.7,0,0,1-.3-.88.29.29,0,0,0-.06-.22,3.3,3.3,0,0,1-.11-.69v-1.5a1.41,1.41,0,0,1,0-.29.29.29,0,0,0,.06-.22,4.62,4.62,0,0,1,.74-2,6,6,0,0,1,3.54-2.48,3,3,0,0,1,.59-.13.27.27,0,0,0,.23-.05h.17A.57.57,0,0,0,53.87,13.73Z"/><path class="cls-3" d="M66.33,14.58c.85-.23,1.68-.5,2.53-.7V25.57l.11-.08,3.71-5.68h4.78a.64.64,0,0,1-.13.26L73,26.23a.19.19,0,0,0,0,.27h0c1.49,2.35,3,4.69,4.48,7,0,.09.13.17.13.27a.73.73,0,0,1-.33.08l-.15.07c-.31.08-.62.19-.93.24l-.16.06a.89.89,0,0,1-.39.09l-.15.07c-.7.18-1.38.42-2.09.57h-.12c-1.49-2.41-2.93-4.85-4.39-7.28l-.11-.14v6.66c-1.11.05-2.23,0-3.34,0a9.91,9.91,0,0,1-1.09,0V15.12c.42-.1.82-.26,1.24-.32l.15-.07a1.3,1.3,0,0,1,.39-.09Z"/><path class="cls-3" d="M96.59,14.34c.57-.15,1.12-.33,1.69-.47V19.8H101a.43.43,0,0,1,0,.16.32.32,0,0,0,.06.23,1,1,0,0,1,0,.24.25.25,0,0,0,.06.22v.24a.24.24,0,0,0,.06.23v.23a.28.28,0,0,0,0,.23v.24a.31.31,0,0,0,0,.23v.23a.31.31,0,0,0,0,.23,2.78,2.78,0,0,1,.12.7.38.38,0,0,1,0,.15c-1.07.06-2.15,0-3.22,0v5.55a1.58,1.58,0,0,0,.71,1.46,3,3,0,0,0,2,.13h.08v.16a.24.24,0,0,0,.06.23v.24a.23.23,0,0,0,.06.22v.24a.28.28,0,0,0,0,.23v.23a.31.31,0,0,0,0,.23,1,1,0,0,1,0,.24.25.25,0,0,0,.06.22V33a.24.24,0,0,0,.06.23.89.89,0,0,0,0,.23.28.28,0,0,0,0,.23v.25c0,.06-.06.19-.08.29a1.2,1.2,0,0,1-.42.07.26.26,0,0,0-.22.07h-.33a1.09,1.09,0,0,0-.44,0,8.35,8.35,0,0,1-1.87,0,1.09,1.09,0,0,0-.44,0h-.25A.28.28,0,0,0,97,34.3h-.16a.26.26,0,0,0-.22-.07,3.6,3.6,0,0,1-2.87-2.64l-.07-.14v-.16a.32.32,0,0,0-.06-.23,8.93,8.93,0,0,1-.13-2V23.44H91.86c-.12-.1-.08-.29-.09-.42a.32.32,0,0,0-.06-.23v-.16a.23.23,0,0,0-.06-.22v-.25a.23.23,0,0,0-.06-.22V21.7a.26.26,0,0,0-.07-.22v-.25a.26.26,0,0,0-.07-.22v-.24a.23.23,0,0,0-.06-.22V20.3a.23.23,0,0,0-.06-.22,1.31,1.31,0,0,1,0-.28H93.5V15.17c.68-.19,1.36-.42,2.06-.57l.15-.06a.89.89,0,0,1,.39-.09Z"/><path class="cls-3" d="M116.47,15.11c1.48-.4,2.94-.84,4.42-1.23v7.64h.1a6.75,6.75,0,0,1,3-1.82l.16-.06h.16a.32.32,0,0,0,.23-.06,4.11,4.11,0,0,1,1.31,0,.81.81,0,0,0,.31,0h.15a.27.27,0,0,0,.23.06,3.35,3.35,0,0,1,2.56,2.56l.07.16v.16a.23.23,0,0,0,.06.22V23a.77.77,0,0,0,0,.37,20.81,20.81,0,0,1,0,2.09v8.76h-4.49V25.29a2.19,2.19,0,0,0-.41-1.44,1.42,1.42,0,0,0-.6-.36.25.25,0,0,0-.22-.06,3.53,3.53,0,0,0-2.65,1.25.32.32,0,0,0-.06.23V34.2c-.85,0-1.7,0-2.55,0h-1.87V17.73C116.46,16.86,116.42,16,116.47,15.11Z"/><path class="cls-3" d="M132.12,13.87h5.08V24.46a23.14,23.14,0,0,0,.1,3,.24.24,0,0,0,.06.23v.07l.06.16a3.15,3.15,0,0,0,1.32,1.87,4.83,4.83,0,0,0,.87.39.29.29,0,0,0,.22.06,4.59,4.59,0,0,0,2.43-.28,3,3,0,0,0,1.62-2l.06-.16v-.15a.29.29,0,0,0,.07-.22c0-.34.06-.68.07-1V13.9h5.09V24.42a26.46,26.46,0,0,1-.1,3.33.25.25,0,0,0,0,.22v.16a.32.32,0,0,0-.06.23v.16a.25.25,0,0,0-.06.22,6.94,6.94,0,0,1-1.45,3,7.31,7.31,0,0,1-3.77,2.41,2.32,2.32,0,0,1-.58.13.34.34,0,0,0-.24,0h-.12a.29.29,0,0,0-.22.06,5.58,5.58,0,0,1-1,.12h-2a4.72,4.72,0,0,1-.92-.11.28.28,0,0,0-.23,0h-.24a.25.25,0,0,0-.22-.06h-.16l-.15-.07a1.38,1.38,0,0,1-.39-.09l-.15-.07a6.8,6.8,0,0,1-4.65-4.87L132.4,29a1.66,1.66,0,0,1-.1-.54v-.16a4,4,0,0,1-.11-.84,2.85,2.85,0,0,0-.05-.65V21.38Q132.1,17.62,132.12,13.87Z"/><path class="cls-3" d="M83.21,19.66a4.89,4.89,0,0,1,1.08-.11,4.18,4.18,0,0,1,1,0,.77.77,0,0,0,.37,0h.24a.32.32,0,0,0,.23.06h.16l.16.06h.15l.15.08a5.68,5.68,0,0,1,3.79,4.17l.06.16a1.27,1.27,0,0,1,.09.47.29.29,0,0,0,.06.22,4.24,4.24,0,0,1,.12.87,1.09,1.09,0,0,0,0,.44,9.77,9.77,0,0,1,0,1.53.83.83,0,0,1-.07.41c-.79.06-1.59,0-2.39,0H82.14v.45a.29.29,0,0,0,.06.22,3.19,3.19,0,0,0,1,1.78,3.6,3.6,0,0,0,1.39.64.61.61,0,0,0,.3.05H86c.37,0,.62-.1.93-.1a.28.28,0,0,0,.23,0,12.13,12.13,0,0,0,3.11-1.3c.19,0,.1.37.13.52a.26.26,0,0,0,.07.22v.24a.25.25,0,0,0,.06.22v.24a.24.24,0,0,0,.06.23v.24a.23.23,0,0,0,.06.22v.24a.28.28,0,0,0,0,.22c0,.17.11.37,0,.53a6.69,6.69,0,0,1-1.18.63l-.14.07a6.18,6.18,0,0,1-1.39.48l-.16.06h-.15l-.16.06H87.3a.28.28,0,0,0-.23,0h-.16a.29.29,0,0,0-.22.06,11.46,11.46,0,0,1-3.41,0,.23.23,0,0,0-.22-.06H82.9a.28.28,0,0,0-.23,0h-.16l-.15-.07a2.59,2.59,0,0,1-.72-.21,5.92,5.92,0,0,1-3-2.4,6.21,6.21,0,0,1-.91-2.34.32.32,0,0,0-.06-.23,6.69,6.69,0,0,1-.14-1,10.6,10.6,0,0,1,.07-2.32.51.51,0,0,0,0-.3V25.1a.32.32,0,0,0,.06-.23v-.16a.29.29,0,0,0,.06-.22,1.11,1.11,0,0,1,.09-.4l.07-.15a1.59,1.59,0,0,1,.17-.52,6.46,6.46,0,0,1,2.52-3.06,5.58,5.58,0,0,1,2.11-.83.28.28,0,0,0,.28.28A.26.26,0,0,0,83.21,19.66Zm-.58,4a3,3,0,0,0-.35,1.12h-.07v.14a3.84,3.84,0,0,0-.09.83h4.55a.66.66,0,0,0,0-.28c.08-.09.1-.35,0-.38s0-.13,0-.17,0-.18-.07-.22v-.16c.08-.11.06-.19-.06-.22a2.59,2.59,0,0,0-.85-1.48,2,2,0,0,0-2.79.45,2.12,2.12,0,0,0-.21.36Z"/><path class="cls-3" d="M159.74,19.54a3.29,3.29,0,0,1,1.17,0,.51.51,0,0,0,.3,0h.24l.15.07a4.43,4.43,0,0,1,2.8,2.07,7.58,7.58,0,0,1,1,3.13.77.77,0,0,0,0,.37,2.41,2.41,0,0,1,0,.38v2.11a4.61,4.61,0,0,1-.1.91.27.27,0,0,0-.06.23v.24a.26.26,0,0,0-.07.22,3.38,3.38,0,0,1-.16.7l-.07.15a6,6,0,0,1-2.7,3.5,6.18,6.18,0,0,1-3.87.66.51.51,0,0,0-.3,0,.86.86,0,0,1-.32,0,.29.29,0,0,0-.22-.06h-.16l-.16-.06c-.3-.06-.6-.13-.9-.22v4a4.18,4.18,0,0,1,0,1h-.15L156,39a1.36,1.36,0,0,1-.39.08l-.15.07a1.3,1.3,0,0,1-.39.09l-.15.07h-.16l-.15.06h-.08l-.15.07c-.6.15-1.18.36-1.79.48l-.15.06a1.81,1.81,0,0,1-.56.12V19.77h3.5a1,1,0,0,1,.43.06,3.38,3.38,0,0,1,0,.45.24.24,0,0,0,.06.23v.24a.28.28,0,0,0,0,.22v.24a.31.31,0,0,0,0,.23,1.74,1.74,0,0,0,.11.15,5.85,5.85,0,0,1,3.26-2A.57.57,0,0,0,159.74,19.54Zm-1.59,4v.07a3.82,3.82,0,0,0-1.73,1.32v5.48a1.13,1.13,0,0,0,.58.23v.07h.22c0,.13.11.15.23.07a3.84,3.84,0,0,0,1.31.06c.1.09.18.07.22-.05a2.44,2.44,0,0,0,1.85-2.1c.13,0,.15-.1.07-.22v-.16c.13,0,.13-.23,0-.3a1.15,1.15,0,0,0,0-.37c.1-.22,0-.48,0-.71a3.37,3.37,0,0,0,0-.71,4.82,4.82,0,0,0-.1-.75v-.14h-.07a2.24,2.24,0,0,0-.93-1.54,2.07,2.07,0,0,0-1.61-.22h-.06Z"/><path class="cls-3" d="M108.28,19.66a8.59,8.59,0,0,1,2.63-.07.77.77,0,0,0,.37,0h.25a.26.26,0,0,0,.22.07,2.59,2.59,0,0,1,.78.17l.15.06a5.4,5.4,0,0,1,1.34.55v.61a.77.77,0,0,0,0,.37.91.91,0,0,1,0,.33.59.59,0,0,0,0,.37v.24a1.21,1.21,0,0,0,0,.38.58.58,0,0,1,0,.32,1.15,1.15,0,0,0,0,.37v.25a.77.77,0,0,0,0,.37,1.61,1.61,0,0,1,0,.31,7.51,7.51,0,0,0-2.08-.94.45.45,0,0,0-.23,0,4.44,4.44,0,0,0-2.17.15,3,3,0,0,0-1.8,2.25.29.29,0,0,0-.06.22,13.51,13.51,0,0,0,0,1.8.29.29,0,0,0,.06.22,3.43,3.43,0,0,0,.92,1.74,3,3,0,0,0,1.43.76.25.25,0,0,0,.22.05,7.63,7.63,0,0,0,1.72-.07l.15-.06a6,6,0,0,0,1.58-.68,1,1,0,0,1,.4-.18,3.53,3.53,0,0,1,0,.46.24.24,0,0,0,.06.23v.23a.24.24,0,0,0,.06.23V31a.25.25,0,0,0,0,.22v.24a.31.31,0,0,0,0,.23v.24a.25.25,0,0,0,0,.22v.24a.31.31,0,0,0,0,.23,1.26,1.26,0,0,1,.08.58,7.91,7.91,0,0,1-2.93,1.11.23.23,0,0,0-.22.06,1.41,1.41,0,0,1-.41,0,1.46,1.46,0,0,0-.51,0,3.93,3.93,0,0,1-.84,0h-.65a2,2,0,0,1-.69-.11.29.29,0,0,0-.22-.06,4.62,4.62,0,0,1-1.35-.43,6.27,6.27,0,0,1-3.46-4.37l-.06-.15V29.1a.28.28,0,0,0-.07-.23,4.83,4.83,0,0,1-.11-.84v-2a.76.76,0,0,1,0-.3.51.51,0,0,0,0-.3.86.86,0,0,1,0-.32L103,25a6.67,6.67,0,0,1,1.91-3.67,6.27,6.27,0,0,1,2.9-1.58.28.28,0,0,0,.23-.07h.15Z"/><path class="cls-3" d="M39.56,34.66l.16-.08Z"/><path class="cls-3" d="M35.46,35.77l.16-.08Z"/><path class="cls-3" d="M31.35,36.93l.17-.08Z"/><path class="cls-3" d="M18.65,38.85l.09.17Z"/><path class="cls-3" d="M23.74,39.1l.17-.08Z"/><path class="cls-3" d="M19.59,40.26l.17-.08Z"/><rect class="cls-4" width="176" height="49"/></g></g></svg>