<svg xmlns="http://www.w3.org/2000/svg" xmlns:xlink="http://www.w3.org/1999/xlink" viewBox="0 0 275 86"><defs><style>.cls-1{fill:none;}</style></defs><g id="Layer_2" data-name="Layer 2"><g id="Layer_1-2" data-name="Layer 1"><image width="128" height="128" transform="translate(16 7) scale(0.59)" xlink:href="E:%5CVideos%5Cicon_Surfer_Old.png"/><path d="M112.61,53.66l2.25-2.58A11.51,11.51,0,0,0,123,54.74c3.87,0,6.17-1.93,6.17-4.8s-2.14-4-4.93-5.2L120,42.87c-2.75-1.17-6-3.26-6-7.6,0-4.51,3.93-7.84,9.3-7.84A12.18,12.18,0,0,1,132,31.09l-2,2.41a9.47,9.47,0,0,0-6.7-2.77c-3.31,0-5.51,1.68-5.51,4.32,0,2.84,2.58,3.91,4.89,4.88l4.21,1.82c3.42,1.47,6.08,3.51,6.08,7.9,0,4.67-3.85,8.39-10.06,8.39A14.15,14.15,0,0,1,112.61,53.66Z"/><path d="M138.66,45.31V28h3.76V45.41c0,7.1,3,9.33,6.85,9.33s7-2.23,7-9.33V28h3.61V45.31c0,9.48-4.58,12.73-10.61,12.73S138.66,54.79,138.66,45.31Z"/><path d="M167.8,28h9.25c6,0,10.34,2.16,10.34,8.31,0,5.9-4.32,8.74-10.34,8.74h-5.49V57.5H167.8Zm8.71,14c4.6,0,7.13-1.86,7.13-5.69S181.11,31,176.51,31h-4.95V42Zm-.2,2,2.95-1.94,9,15.45H184Z"/><path d="M193.41,28h17v3.18H197.17v10h11.25v3.18H197.17V57.5h-3.76Z"/><path d="M215.64,28h17v3.18H219.4v9.26h11.19v3.18H219.4V54.32h13.71V57.5H215.64Z"/><path d="M239.35,28h9.25c6,0,10.34,2.16,10.34,8.31,0,5.9-4.32,8.74-10.34,8.74h-5.49V57.5h-3.76Zm8.71,14c4.6,0,7.13-1.86,7.13-5.69S252.66,31,248.06,31h-4.95V42Zm-.2,2,2.95-1.94,9,15.45h-4.26Z"/><rect class="cls-1" width="275" height="86"/></g></g></svg>