<?xml version="1.0" encoding="utf-8"?>
<!-- Generator: Adobe Illustrator 25.0.0, SVG Export Plug-In . SVG Version: 6.00 Build 0)  -->
<svg version="1.1" id="Layer_1" xmlns="http://www.w3.org/2000/svg" xmlns:xlink="http://www.w3.org/1999/xlink" x="0px" y="0px"
	 viewBox="0 0 1000 1000" style="enable-background:new 0 0 1000 1000;" xml:space="preserve">
<style type="text/css">
	.st0{clip-path:url(#SVGID_1_);fill:url(#SVGID_2_);}
	.st1{clip-path:url(#SVGID_3_);fill:url(#SVGID_4_);}
	.st2{clip-path:url(#SVGID_5_);fill:url(#SVGID_6_);}
	.st3{clip-path:url(#SVGID_7_);fill:#551613;}
	.st4{clip-path:url(#SVGID_8_);fill:#211112;}
	.st5{clip-path:url(#SVGID_9_);fill:url(#SVGID_10_);}
	.st6{clip-path:url(#SVGID_11_);fill:url(#SVGID_12_);}
	.st7{clip-path:url(#SVGID_13_);fill:#371715;}
	.st8{clip-path:url(#SVGID_14_);fill:url(#SVGID_15_);}
	.st9{clip-path:url(#SVGID_16_);fill:url(#SVGID_17_);}
</style>
<g>
	<g>
	</g>
</g>
<g>
	<g>
		<defs>
			<polygon id="SVGID_28_" points="1956.5,794.8 1702,315.6 1449.1,793.7 1504,876.3 1571.1,886.8 1593.5,795.1 1593.5,795.1 
				1784.6,795.1 1801.1,886.8 1884.2,877.3 1956.5,794.8 			"/>
		</defs>
		<clipPath id="SVGID_1_">
			<use xlink:href="#SVGID_28_"  style="overflow:visible;"/>
		</clipPath>
		
			<linearGradient id="SVGID_2_" gradientUnits="userSpaceOnUse" x1="1817.0193" y1="94.5936" x2="1866.6892" y2="195.3113" gradientTransform="matrix(1 0 0 -1 0 997.8898)">
			<stop  offset="0" style="stop-color:#9A1F22"/>
			<stop  offset="0.1827" style="stop-color:#AF2626"/>
			<stop  offset="0.4079" style="stop-color:#C22D28"/>
			<stop  offset="0.5614" style="stop-color:#C92F29"/>
		</linearGradient>
		<polygon class="st0" points="1784.6,795.1 1801.1,886.8 1884.2,877.3 1956.1,795.1 		"/>
	</g>
	<g>
		<defs>
			<polygon id="SVGID_31_" points="1956.5,794.8 1702,315.6 1449.1,793.7 1504,876.3 1571.1,886.8 1593.5,795.1 1593.5,795.1 
				1784.6,795.1 1801.1,886.8 1884.2,877.3 1956.5,794.8 			"/>
		</defs>
		<clipPath id="SVGID_3_">
			<use xlink:href="#SVGID_31_"  style="overflow:visible;"/>
		</clipPath>
		
			<linearGradient id="SVGID_4_" gradientUnits="userSpaceOnUse" x1="1916.9429" y1="202.8214" x2="1916.9429" y2="106.8214" gradientTransform="matrix(1 0 0 -1 0 997.8898)">
			<stop  offset="0" style="stop-color:#A51E23"/>
			<stop  offset="1" style="stop-color:#A51E24"/>
		</linearGradient>
		<polygon class="st1" points="1961.3,795.1 1872.5,795.1 1884.4,891.1 1916.9,891.1 		"/>
	</g>
	<g>
		<defs>
			<polygon id="SVGID_34_" points="1956.5,794.8 1702,315.6 1449.1,793.7 1504,876.3 1571.1,886.8 1593.5,795.1 1593.5,795.1 
				1784.6,795.1 1801.1,886.8 1884.2,877.3 1956.5,794.8 			"/>
		</defs>
		<clipPath id="SVGID_5_">
			<use xlink:href="#SVGID_34_"  style="overflow:visible;"/>
		</clipPath>
		
			<linearGradient id="SVGID_6_" gradientUnits="userSpaceOnUse" x1="1521.2928" y1="237.8214" x2="1521.2928" y2="111.1215" gradientTransform="matrix(1 0 0 -1 0 997.8898)">
			<stop  offset="7.389160e-02" style="stop-color:#B32827"/>
			<stop  offset="0.3398" style="stop-color:#B02726"/>
			<stop  offset="0.6259" style="stop-color:#A42323"/>
			<stop  offset="0.9205" style="stop-color:#931C1F"/>
			<stop  offset="1" style="stop-color:#8D191D"/>
		</linearGradient>
		<polygon class="st2" points="1593.4,760.1 1466.9,760.1 1449.1,793.7 1504,876.3 1571.1,886.8 1593.4,795.5 		"/>
	</g>
	<g>
		<defs>
			<polygon id="SVGID_37_" points="1956.5,794.8 1702,315.6 1449.1,793.7 1504,876.3 1571.1,886.8 1593.5,795.1 1593.5,795.1 
				1784.6,795.1 1801.1,886.8 1884.2,877.3 1956.5,794.8 			"/>
		</defs>
		<clipPath id="SVGID_7_">
			<use xlink:href="#SVGID_37_"  style="overflow:visible;"/>
		</clipPath>
		<polygon class="st3" points="1497.1,795.5 1430.7,795.5 1501.8,881.8 1504.4,877.1 		"/>
	</g>
	<g>
		<defs>
			<polygon id="SVGID_39_" points="1956.5,794.8 1702,315.6 1449.1,793.7 1504,876.3 1571.1,886.8 1593.5,795.1 1593.5,795.1 
				1784.6,795.1 1801.1,886.8 1884.2,877.3 1956.5,794.8 			"/>
		</defs>
		<clipPath id="SVGID_8_">
			<use xlink:href="#SVGID_39_"  style="overflow:visible;"/>
		</clipPath>
		<polygon class="st4" points="1497.1,795.5 1489.2,708.1 1441.6,758 1434.7,795.5 		"/>
	</g>
	<g>
		<defs>
			<polygon id="SVGID_41_" points="1956.5,794.8 1702,315.6 1449.1,793.7 1504,876.3 1571.1,886.8 1593.5,795.1 1593.5,795.1 
				1784.6,795.1 1801.1,886.8 1884.2,877.3 1956.5,794.8 			"/>
		</defs>
		<clipPath id="SVGID_9_">
			<use xlink:href="#SVGID_41_"  style="overflow:visible;"/>
		</clipPath>
		
			<linearGradient id="SVGID_10_" gradientUnits="userSpaceOnUse" x1="1680.7928" y1="372.461" x2="1680.7928" y2="631.1623" gradientTransform="matrix(1 0 0 -1 0 997.8898)">
			<stop  offset="0" style="stop-color:#7E141B"/>
			<stop  offset="4.417330e-02" style="stop-color:#84161D"/>
			<stop  offset="0.262" style="stop-color:#9D1F22"/>
			<stop  offset="0.4764" style="stop-color:#AF2526"/>
			<stop  offset="0.684" style="stop-color:#BA2827"/>
			<stop  offset="0.8768" style="stop-color:#BE2928"/>
			<stop  offset="1" style="stop-color:#AB1F25"/>
		</linearGradient>
		<polygon class="st5" points="1871.7,634.5 1702,315.6 1489.8,716.8 		"/>
	</g>
	<g>
		<defs>
			<polygon id="SVGID_44_" points="1956.5,794.8 1702,315.6 1449.1,793.7 1504,876.3 1571.1,886.8 1593.5,795.1 1593.5,795.1 
				1784.6,795.1 1801.1,886.8 1884.2,877.3 1956.5,794.8 			"/>
		</defs>
		<clipPath id="SVGID_11_">
			<use xlink:href="#SVGID_44_"  style="overflow:visible;"/>
		</clipPath>
		
			<linearGradient id="SVGID_12_" gradientUnits="userSpaceOnUse" x1="1490.0428" y1="311.6714" x2="1872.5428" y2="311.6714" gradientTransform="matrix(1 0 0 -1 0 997.8898)">
			<stop  offset="0" style="stop-color:#4A1917"/>
			<stop  offset="0.3349" style="stop-color:#461715"/>
			<stop  offset="1" style="stop-color:#421413"/>
		</linearGradient>
		<polygon class="st6" points="1490,716.5 1841.3,577.4 1872.5,795.1 1497.1,795.1 		"/>
	</g>
	<g>
		<defs>
			<polygon id="SVGID_47_" points="1956.5,794.8 1702,315.6 1449.1,793.7 1504,876.3 1571.1,886.8 1593.5,795.1 1593.5,795.1 
				1784.6,795.1 1801.1,886.8 1884.2,877.3 1956.5,794.8 			"/>
		</defs>
		<clipPath id="SVGID_13_">
			<use xlink:href="#SVGID_47_"  style="overflow:visible;"/>
		</clipPath>
		<polygon class="st7" points="1840.6,576 1872.5,795.1 1963.5,795.1 1920.5,606.4 		"/>
	</g>
	<g>
		<defs>
			<polygon id="SVGID_49_" points="1956.5,794.8 1702,315.6 1449.1,793.7 1504,876.3 1571.1,886.8 1593.5,795.1 1593.5,795.1 
				1784.6,795.1 1801.1,886.8 1884.2,877.3 1956.5,794.8 			"/>
		</defs>
		<clipPath id="SVGID_14_">
			<use xlink:href="#SVGID_49_"  style="overflow:visible;"/>
		</clipPath>
		
			<linearGradient id="SVGID_15_" gradientUnits="userSpaceOnUse" x1="1687.7428" y1="682.3214" x2="1687.7428" y2="333.2214" gradientTransform="matrix(1 0 0 -1 0 997.8898)">
			<stop  offset="0" style="stop-color:#DE482F"/>
			<stop  offset="0.4353" style="stop-color:#D9432D"/>
			<stop  offset="0.9029" style="stop-color:#CB342A"/>
			<stop  offset="1" style="stop-color:#C83029"/>
		</linearGradient>
		<polygon class="st8" points="1620.8,664.7 1754.6,611.8 1702,315.6 		"/>
	</g>
	<g>
		<defs>
			<polygon id="SVGID_52_" points="1956.5,794.8 1702,315.6 1449.1,793.7 1504,876.3 1571.1,886.8 1593.5,795.1 1593.5,795.1 
				1784.6,795.1 1801.1,886.8 1884.2,877.3 1956.5,794.8 			"/>
		</defs>
		<clipPath id="SVGID_16_">
			<use xlink:href="#SVGID_52_"  style="overflow:visible;"/>
		</clipPath>
		
			<linearGradient id="SVGID_17_" gradientUnits="userSpaceOnUse" x1="1689.0428" y1="202.8214" x2="1689.0428" y2="386.1214" gradientTransform="matrix(1 0 0 -1 0 997.8898)">
			<stop  offset="0" style="stop-color:#771416"/>
			<stop  offset="7.080448e-02" style="stop-color:#791416"/>
			<stop  offset="0.6234" style="stop-color:#87181B"/>
			<stop  offset="1" style="stop-color:#8D191D"/>
		</linearGradient>
		<polygon class="st9" points="1754.6,611.8 1784.6,795.1 1593.4,795.1 1620.8,664.7 		"/>
	</g>
</g>
</svg>
