<?xml version="1.0" encoding="utf-8"?>
<!-- Generator: Adobe Illustrator 25.0.0, SVG Export Plug-In . SVG Version: 6.00 Build 0)  -->
<svg version="1.1" id="Layer_1" xmlns="http://www.w3.org/2000/svg" xmlns:xlink="http://www.w3.org/1999/xlink" x="0px" y="0px"
	 viewBox="0 0 280 300" style="enable-background:new 0 0 280 300;" xml:space="preserve">
<style type="text/css">
	.st0{fill:#D8322B;}
	.st1{fill:#FFFFFF;}
	.st2{fill:#4C4E53;}
	.st3{fill:none;}
</style>
<path class="st0" d="M-206.9,131.9h0.5c0.5,0.4,1.1,0.9,1.6,1.3l3.9,3.1l0,0l4.5,3.5l0,0c0.1,0.1,0.3,0.2,0.3,0.4
	c-0.7,6.3-1.5,12.6-2.2,18.9l-0.2,0.1l-0.2,0.1l-0.4,0.1l-0.2,0.1h0l-0.2,0.1h-0.1l-0.2,0.1h-0.1l-0.2,0.1h-0.1l-0.2,0.1h-0.2
	l-0.2,0.1h-0.1l-0.2,0.1h-0.1l-0.2,0.1h-0.1l-0.2,0.1h-0.1l-0.2,0.1h-0.1l-0.2,0.1h-0.1l-0.2,0.1l-0.4,0.1l-0.2,0.1l-0.4,0.1
	l-0.2,0.1h-0.1l-0.2,0.1h-0.1l-0.2,0.1h-0.1l-0.2,0.1h-0.1l-0.2,0.1h-0.1l-0.2,0.1h-0.1l-0.2,0.1h-0.1l-0.2,0.1h-0.1l-0.2,0.1h-0.1
	l-0.2,0.1h-0.1l-0.2,0.1h-0.1l-0.2,0.1l-0.4,0.1l-0.2,0.1l-0.4,0.1l-0.2,0.1h-0.1l-0.2,0.1h-0.1l-0.2,0.1h-0.1l-0.2,0.1h-0.1
	l-0.2,0.1h-0.1l-0.2,0.1h-0.1l-0.2,0.1h-0.1l-0.2,0.1l-0.4,0.1l-0.2,0.1l-0.4,0.1l-0.2,0.1h-0.1l-0.2,0.1h-0.1l-0.2,0.1l-0.4,0.1
	l-0.2,0.1h-0.1l-0.2,0.1h-0.1l-0.2,0.1h-0.1l-0.2,0.1h-0.1l-0.2,0.1h-0.1l-0.2,0.1h-0.1l-0.2,0.1h-0.1l-0.2,0.1h-0.1l-0.2,0.1h-0.1
	l-0.2,0.1l-0.4,0.1l-0.2,0.1l-0.4,0.1l-0.2,0.1h-0.1l-0.2,0.1h-0.1l-0.2,0.1h-0.1l-0.2,0.1h-0.1l-0.2,0.1h-0.2l-0.2,0.1h0l-0.2,0.1
	h-0.1l-0.2,0.1h-0.1l-0.2,0.1h-0.1l-0.2,0.1h-0.1l-0.2,0.1h-0.1l-0.2,0.1l-0.4,0.1l-0.2,0.1l-0.4,0.1l-0.2,0.1h-0.2l-0.2,0.1h-0.1
	l-0.2,0.1c-0.1,0-0.2,0-0.2-0.1l-0.1-0.2V165l-0.1-0.2v-0.1l-0.1-0.2v-0.1l-0.1-0.2c0-0.1-0.1-0.2-0.1-0.4l-0.1-0.2v-0.1l-0.1-0.2
	v-0.1l-0.1-0.2v-0.1c0-0.1-0.1-0.1-0.1-0.2v-0.1l-0.1-0.2v-0.1l-0.1-0.2v-0.2l-0.1-0.2v-0.1l-0.1-0.2l-0.1-0.4
	c0-0.1-0.1-0.1-0.1-0.2v-0.1l-0.1-0.2v-0.1l-0.1-0.2v-0.1l-0.1-0.2v-0.1l-0.1-0.2v-0.1l-0.1-0.2v-0.1l-0.1-0.2v-0.1l-0.1-0.2
	l0.1-0.4l-0.1-0.2v-0.1l-0.1-0.2v-0.1l-0.1-0.2v-0.1c0-0.1-0.1-0.1-0.1-0.2v-0.1l-0.1-0.2v-0.1l-0.1-0.2v-0.1l-0.1-0.2v-0.1
	l-0.1-0.2l-0.1-0.4l-0.1-0.2v-0.1l-0.1-0.2v-0.1l-0.1-0.2v-0.1l0-0.1v-0.1l-0.1-0.2v-0.1l-0.1-0.2V156l-0.1-0.2l-0.2-0.6l-0.1-0.2
	V155l-0.1-0.2v-0.1l-0.1-0.2v-0.1l-0.1-0.2v-0.1l-0.1-0.2v-0.1l-0.1-0.2c0-0.1,0-0.2-0.1-0.3l-0.1-0.2l-0.1-0.4l-0.1-0.2v-0.1
	c0-0.1-0.1-0.1-0.1-0.2v-0.1l-0.1-0.2v-0.1l-0.1-0.2c-0.7-4.4-1.5-8.7-2.2-13.1c-0.2-1.5-0.5-3.1-0.8-4.6c0.1-0.1,0.3-0.1,0.5-0.1
	l19.2-2.5C-207.3,132-207.1,132-206.9,131.9C-207,131.9-206.9,131.9-206.9,131.9z M-224.7,136.1c0.1,0.3,0.2,0.6,0.3,0.8
	c0.3,0.6,0.5,1.3,0.8,2c0.3,0,0.7-0.1,1-0.1c3.5-0.5,7-1,10.6-1.5c0.4-0.1,0.8-0.1,1.2-0.2c1.6,1.6,3.1,3.2,4.6,4.7
	c0.3,0,0.6-0.1,0.8-0.1c2.2-0.4,4.5-0.8,6.7-1.2c-0.3-0.3-0.7-0.5-1-0.8l-7.1-5.6c-0.2-0.1-0.3-0.3-0.5-0.3L-224.7,136.1z
	 M-211.2,142.3l-11.5,2v0.1c0.4,1,0.8,2.1,1.2,3.1c0.4,0,0.8-0.1,1.1-0.2l5.2-1c0.1,0,0.2-0.1,0.3,0.1c0.4,0.8,0.9,1.6,1.4,2.4
	c0.1,0.2,0.2,0.3,0.3,0.4c0.3,0,0.5-0.1,0.8-0.1c2.1-0.4,4.2-0.9,6.2-1.3c0-0.1-0.1-0.2-0.1-0.2c-1.3-1.6-2.6-3.2-3.9-4.8
	c-0.1-0.1-0.2-0.3-0.3-0.3S-211,142.3-211.2,142.3L-211.2,142.3z M-216.6,152.5c-1.3,0.3-2.7,0.6-4,0.9c0.4,1,0.7,2.1,1.1,3.1
	c0,0.1,0.1,0.3,0.2,0.2c2.1-0.5,4.3-1.1,6.4-1.6c-0.1-0.2-0.2-0.4-0.3-0.6c-0.4-0.8-0.9-1.7-1.3-2.5
	C-215.2,152.1-215.9,152.3-216.6,152.5L-216.6,152.5z"/>
<path class="st1" d="M-224.7,136.1l17.5-2.3c0.2-0.1,0.4,0.1,0.5,0.3l7.1,5.6c0.3,0.3,0.7,0.5,1,0.8c-2.2,0.4-4.5,0.8-6.7,1.2
	c-0.3,0-0.6,0.1-0.8,0.1c-1.5-1.6-3-3.2-4.6-4.7c-0.4,0-0.8,0.1-1.2,0.2c-3.5,0.5-7,1-10.6,1.5c-0.3,0-0.7,0.1-1,0.1
	c-0.3-0.6-0.6-1.3-0.8-2C-224.5,136.7-224.7,136.4-224.7,136.1z"/>
<path class="st1" d="M-211.2,142.3c0.2,0,0.4-0.1,0.6-0.1c0.2,0,0.2,0.2,0.3,0.3c1.3,1.6,2.6,3.2,3.9,4.8c0,0.1,0.1,0.1,0.1,0.2
	c-2.1,0.5-4.2,0.9-6.2,1.3c-0.3,0.1-0.5,0.1-0.8,0.1c-0.1-0.1-0.2-0.3-0.3-0.4c-0.4-0.8-0.9-1.6-1.4-2.4c0-0.1-0.2-0.1-0.3-0.1
	l-5.2,1c-0.4,0.1-0.7,0.2-1.1,0.2c-0.4-1-0.8-2.1-1.2-3.1v-0.1L-211.2,142.3z"/>
<path class="st1" d="M-216.6,152.5c0.7-0.1,1.4-0.4,2.1-0.4c0.4,0.9,0.9,1.7,1.3,2.5c0.1,0.2,0.2,0.4,0.3,0.6
	c-2.1,0.5-4.3,1.1-6.4,1.6c-0.1,0.1-0.2-0.1-0.2-0.2c-0.3-1-0.7-2.1-1.1-3.1C-219.3,153-217.9,152.8-216.6,152.5z"/>
<path class="st2" d="M-185.1,138.6h0.2c0.8,0,1.6,0,2.4,0c0.3,0,0.7,0,1,0.1c0.1,0,0.2,0,0.2,0h0.2c0.1,0.1,0.1,0.1,0.2,0.1
	c0.2,0,0.3,0,0.5,0.1c0.8,0.2,1.6,0.5,2.3,0.9c0,0.4,0,0.8-0.1,1.2c0,0.1,0,0.2,0,0.4v0.2c0,0.1,0,0.2,0,0.4c0,0.1,0,0.2,0,0.3
	c0,0.1,0,0.3,0,0.4c0,0.1,0,0.2,0,0.2c0,0.1,0,0.3,0,0.4c0,0.1,0,0.2,0,0.3c0,0.1,0,0.2,0,0.4v0.1h-0.1c-1.1-0.7-2.4-1.1-3.7-1.4
	c-0.1-0.1-0.1-0.1-0.2-0.1c-0.2,0-0.5,0-0.7-0.1c-0.4-0.1-0.9-0.1-1.3,0h-0.2c-0.1,0-0.2,0-0.2,0.1c-0.3,0.1-0.6,0.3-0.8,0.4
	c-0.2,0.2-0.3,0.4-0.4,0.6l-0.1,0.2c-0.1,0.5,0.1,1.1,0.5,1.5c0.8,0.6,1.7,1,2.7,1.4c1.5,0.5,3,1.2,4.3,2.2c0.9,0.7,1.5,1.6,1.7,2.7
	c0,0.1,0,0.2,0.1,0.2c0.1,0.6,0.1,1.3,0.1,1.9c0,0.2,0,0.4-0.1,0.6c-0.1,0.1-0.1,0.1-0.1,0.2c-0.1,0.8-0.5,1.6-1,2.3
	c-0.8,1.1-2,1.8-3.3,2.2h-0.1l-0.2,0.1h-0.2l-0.2,0.1h-0.2c-0.1,0-0.2,0-0.2,0.1h-0.2c-0.1,0-0.2,0-0.4,0c-0.4,0.1-0.8,0.1-1.2,0.1
	c-0.5,0-0.9,0-1.4-0.1c-0.2,0-0.3,0-0.5,0c-0.3,0-0.5,0-0.8-0.1c-0.1,0-0.1-0.1-0.2-0.1h-0.2c-0.1-0.1-0.1-0.1-0.2-0.1h-0.2
	c-0.1-0.1-0.1-0.1-0.2-0.1c-0.2,0-0.3,0-0.5-0.1l-0.2-0.1c-0.8-0.2-1.6-0.5-2.4-0.8v-0.1c0,0,0-0.1,0-0.2c0-0.4,0.1-0.8,0.1-1.2
	c0-0.3,0.1-0.6,0.1-0.9c0-0.1,0-0.2,0-0.4c0-0.5,0.1-1,0.2-1.6h0.1c0.9,0.4,1.8,0.8,2.7,1.1c0.4,0.1,0.8,0.2,1.2,0.4h0.2h0.2
	c0.1,0.1,0.1,0.1,0.2,0.1h0.2c0.1,0.1,0.1,0.1,0.2,0.1h0.2c0.1,0,0.2,0,0.3,0c0.5,0,1.1,0,1.6,0c0.1,0,0.2,0,0.2-0.1
	c0.4-0.1,0.7-0.2,1-0.4c0.3-0.3,0.5-0.6,0.6-1c0.1-0.3,0.1-0.5,0-0.8c-0.2-0.8-0.9-1.2-1.6-1.5c-1.6-0.8-3.3-1.2-4.8-2.1
	c-1-0.5-1.8-1.3-2.4-2.3c-0.1-0.3-0.3-0.6-0.3-0.9c0-0.1,0-0.2-0.1-0.2c-0.1-0.2-0.1-0.5-0.1-0.7c0-0.5,0-1,0-1.5c0-0.1,0-0.2,0-0.3
	c0-0.1,0.1-0.1,0.1-0.2c0.1-0.7,0.3-1.4,0.7-2c0.8-1.2,2.1-2.1,3.5-2.5c0.2-0.1,0.4-0.1,0.6-0.1c0.1,0,0.2,0,0.2-0.1h0.2
	C-185.1,138.4-185.2,138.5-185.1,138.6z"/>
<path class="st2" d="M-172.7,139.5c0.8-0.2,1.7-0.5,2.5-0.7c0,3.9,0,7.8,0,11.7l0.1-0.1l3.7-5.7c0.9,0,1.7,0,2.5,0s1.5,0,2.2,0
	c0,0.1-0.1,0.2-0.1,0.3l-4.3,6.2c-0.1,0.1-0.1,0.2,0,0.3c0,0,0,0,0,0c1.5,2.4,3,4.7,4.5,7c0.1,0.1,0.1,0.2,0.1,0.3
	c-0.1,0.1-0.2,0.1-0.3,0.1l-0.1,0.1c-0.3,0.1-0.6,0.2-0.9,0.2l-0.2,0.1c-0.1,0.1-0.3,0.1-0.4,0.1l-0.1,0.1c-0.7,0.2-1.4,0.4-2.1,0.6
	h-0.1c-1.5-2.4-2.9-4.9-4.4-7.3l-0.1-0.1c0,2.1,0,4.2,0,6.4c0,0.1,0,0.2,0,0.3c-1.1,0.1-2.2,0-3.3,0c-0.4,0-0.7,0-1.1,0
	c0-1.2,0-2.5,0-3.7v-14.1c0-0.4,0-0.8,0-1.2c0.4-0.1,0.8-0.3,1.2-0.3l0.1-0.1c0.1-0.1,0.3-0.1,0.4-0.1L-172.7,139.5z"/>
<path class="st2" d="M-142.4,139.2c0.6-0.1,1.1-0.3,1.7-0.5c0,2,0,3.9,0,5.9v0.1c0.9,0,1.8,0,2.7,0c0,0.1,0,0.1,0,0.2
	c0,0.1,0,0.2,0.1,0.2c0,0.1,0,0.2,0,0.2c0,0.1,0,0.2,0.1,0.2c0,0.1,0,0.2,0,0.2c0,0.1,0,0.2,0.1,0.2c0,0.1,0,0.2,0,0.2
	c0,0.1,0,0.2,0.1,0.2c0,0.1,0,0.2,0,0.2c0,0.1,0,0.2,0,0.2c0,0.1,0,0.2,0,0.2c0,0.1,0,0.2,0,0.2c0.1,0.2,0.1,0.5,0.1,0.7
	c0,0,0,0.1,0,0.1c-1.1,0.1-2.1,0-3.2,0v0.1c0,1.8,0,3.7,0,5.5c-0.1,0.6,0.2,1.1,0.7,1.5c0.6,0.3,1.3,0.3,2,0.1h0.1v0.2
	c0,0.1,0,0.2,0.1,0.2c0,0.1,0,0.2,0,0.2c0,0.1,0,0.2,0.1,0.2c0,0.1,0,0.2,0,0.2c0,0.1,0,0.2,0.1,0.2c0,0.1,0,0.2,0,0.2
	c0,0.1,0,0.2,0,0.2c0,0.1,0,0.2,0,0.2c0,0.1,0,0.2,0.1,0.2v0.2c0,0.1,0,0.2,0.1,0.2c0,0.1,0,0.2,0,0.2c0,0.1,0,0.2,0.1,0.2
	c0,0.1,0,0.2,0,0.2s-0.1,0.2-0.1,0.3c-0.1,0-0.3,0.1-0.4,0.1c-0.1,0-0.2,0-0.2,0.1c-0.1,0-0.2,0-0.3,0c-0.1,0-0.3,0-0.4,0
	c-0.6,0.1-1.2,0.1-1.9,0c-0.1,0-0.3,0-0.4,0h-0.2c-0.1,0-0.1-0.1-0.2-0.1h-0.2c-0.1-0.1-0.1-0.1-0.2-0.1c-1.4-0.2-2.5-1.3-2.9-2.6
	l-0.1-0.1c0,0,0-0.1,0-0.2c0-0.1,0-0.2-0.1-0.2c-0.1-0.7-0.2-1.3-0.1-2c0-1.9,0-3.8,0-5.6c-0.5,0-1.1,0-1.6,0
	c-0.1-0.1-0.1-0.3-0.1-0.4c0-0.1,0-0.2-0.1-0.2c0,0,0-0.1,0-0.2c0-0.1,0-0.2-0.1-0.2c0-0.1,0-0.2,0-0.2c0-0.1,0-0.2-0.1-0.2
	c0-0.1,0-0.2,0-0.2c0-0.1,0-0.2-0.1-0.2v-0.2c0-0.1,0-0.2-0.1-0.2c0-0.1,0-0.2,0-0.2c0-0.1,0-0.2-0.1-0.2c0-0.1,0-0.2,0-0.2
	c0-0.1,0-0.2-0.1-0.2c0-0.1,0-0.2,0-0.3c0.7,0,1.4,0,2.2,0c0-1.5,0-3.1,0-4.6c0.7-0.2,1.4-0.4,2.1-0.6l0.1-0.1
	c0.1-0.1,0.3-0.1,0.4-0.1L-142.4,139.2z"/>
<path class="st2" d="M-122.5,140c1.5-0.4,2.9-0.8,4.4-1.2c0,0.8,0,1.7,0,2.5v5.1h0.1c0.8-0.9,1.9-1.5,3-1.8l0.2-0.1h0.2
	c0.1,0,0.2,0,0.2-0.1c0.4-0.1,0.9-0.1,1.3,0c0.1,0,0.2,0,0.3,0h0.1c0.1,0.1,0.1,0.1,0.2,0.1c1.3,0.3,2.3,1.3,2.6,2.6l0.1,0.2
	c0,0,0,0.1,0,0.2c0,0.1,0,0.2,0.1,0.2c0,0.1,0,0.2,0,0.2c0,0.1,0,0.2,0,0.4c0.1,0.7,0,1.4,0,2.1c0,2.9,0,5.8,0,8.8
	c-0.9,0-1.7,0-2.6,0c-0.6,0-1.3,0-1.9,0c0-3,0-5.9,0-8.9c0-0.5-0.1-1-0.4-1.4c-0.2-0.2-0.4-0.3-0.6-0.4c-0.1-0.1-0.1-0.1-0.2-0.1
	c-1,0-2,0.5-2.6,1.2c0,0.1-0.1,0.1-0.1,0.2c0,2.3,0,4.6,0,6.9c0,0.8,0,1.6,0,2.4c-0.9,0.1-1.7,0-2.6,0c-0.6,0-1.2,0-1.9,0
	c0-1.9,0-3.9,0-5.8v-10.6C-122.5,141.7-122.6,140.9-122.5,140z"/>
<path class="st2" d="M-106.9,138.8c1.7,0,3.4,0,5.1,0v10.6c0,1,0,2,0.1,3c0,0.1,0,0.2,0.1,0.2v0.1c0,0.1,0,0.1,0.1,0.2
	c0.2,0.8,0.7,1.4,1.3,1.9c0.3,0.2,0.6,0.3,0.9,0.4c0.1,0.1,0.1,0.1,0.2,0.1c0.8,0.1,1.7,0,2.4-0.3c0.8-0.4,1.4-1.1,1.6-2
	c0-0.1,0-0.1,0.1-0.2v-0.1c0.1-0.1,0.1-0.1,0.1-0.2c0-0.3,0.1-0.7,0.1-1c0-4.2,0-8.4,0-12.5h5.1c0,3.5,0,7,0,10.5
	c0,1.1,0,2.2-0.1,3.3c-0.1,0.1-0.1,0.1-0.1,0.2c0,0,0,0.1,0,0.2c0,0.1-0.1,0.1-0.1,0.2c0,0.1,0,0.1,0,0.2c-0.1,0.1-0.1,0.1-0.1,0.2
	c-0.2,1.1-0.7,2.1-1.4,3c-1,1.2-2.3,2-3.8,2.4c-0.2,0.1-0.4,0.1-0.6,0.1c-0.1,0-0.2,0-0.2,0.1h-0.1c-0.1,0-0.2,0-0.2,0.1
	c-0.3,0.1-0.7,0.1-1,0.1c-0.7,0-1.3,0-1.9,0c-0.3,0-0.6,0-0.9-0.1c-0.1,0-0.1-0.1-0.2-0.1h-0.2c-0.1-0.1-0.1-0.1-0.2-0.1h-0.2
	l-0.1-0.1c-0.1,0-0.3,0-0.4-0.1l-0.1-0.1c-2.3-0.7-4.1-2.5-4.6-4.9c0-0.1,0-0.1-0.1-0.1c-0.1-0.2-0.1-0.4-0.1-0.5c0-0.1,0-0.1,0-0.2
	c-0.1-0.3-0.1-0.6-0.1-0.8c0-0.2,0-0.4-0.1-0.6c0-1.8,0-3.6,0-5.5C-106.9,143.8-106.9,141.3-106.9,138.8z"/>
<path class="st2" d="M-155.8,144.5c0.4-0.1,0.7-0.1,1.1-0.1c0.3,0,0.7,0,1,0c0.1,0,0.2,0,0.4,0h0.2c0.1,0,0.1,0.1,0.2,0.1h0.2
	l0.2,0.1h0.1l0.1,0.1c1.9,0.6,3.4,2.2,3.8,4.2c0,0.1,0,0.1,0.1,0.2c0.1,0.1,0.1,0.3,0.1,0.5c0,0.1,0,0.2,0.1,0.2
	c0.1,0.3,0.1,0.6,0.1,0.9c0,0.1,0,0.3,0,0.4c0,0.5,0,1,0,1.5c0,0.1,0,0.3-0.1,0.4c-0.8,0.1-1.6,0-2.4,0h-6.3v0.3c0,0,0,0.1,0,0.1
	c0,0.1,0,0.2,0.1,0.2c0.1,0.7,0.5,1.3,1,1.8c0.4,0.3,0.9,0.5,1.4,0.6c0.1,0,0.2,0.1,0.3,0.1c0.4,0,0.7,0,1.1,0s0.6-0.1,0.9-0.1
	c0.1,0,0.2,0,0.2-0.1c1.1-0.3,2.1-0.7,3.1-1.3c0.2,0,0.1,0.4,0.1,0.5c0,0.1,0,0.2,0.1,0.2c0,0.1,0,0.2,0,0.2c0,0.1,0,0.2,0.1,0.2
	c0,0.1,0,0.2,0,0.2c0,0.1,0,0.2,0.1,0.2c0,0.1,0,0.2,0,0.2c0,0.1,0,0.2,0.1,0.2c0,0.1,0,0.2,0,0.2c0,0.1,0,0.2,0,0.2
	c0,0.2,0.1,0.4,0,0.5c-0.4,0.3-0.8,0.5-1.2,0.6l-0.1,0.1c-0.4,0.2-0.9,0.4-1.4,0.5l-0.2,0.1h-0.1l-0.2,0.1h-0.2
	c-0.1,0-0.2,0-0.2,0.1h-0.2c-0.1,0-0.2,0-0.2,0.1c-1.1,0.2-2.3,0.2-3.4,0c-0.1-0.1-0.1-0.1-0.2-0.1h-0.2c-0.1,0-0.1-0.1-0.2-0.1
	h-0.2l-0.1-0.1c-0.2,0-0.5-0.1-0.7-0.2c-1.2-0.4-2.3-1.3-3-2.4c-0.5-0.7-0.8-1.5-0.9-2.3c0-0.1,0-0.2-0.1-0.2
	c-0.1-0.3-0.1-0.7-0.1-1c-0.1-0.8,0-1.6,0.1-2.3c0-0.1,0-0.2,0-0.3c0,0,0-0.1,0-0.2c0-0.1,0.1-0.1,0.1-0.2c0-0.1,0-0.1,0-0.2
	c0-0.1,0.1-0.1,0.1-0.2c0-0.1,0-0.3,0.1-0.4l0.1-0.1c0-0.2,0.1-0.4,0.2-0.5c0.5-1.3,1.4-2.3,2.5-3.1c0.6-0.4,1.4-0.7,2.1-0.8
	c0,0.2,0.1,0.3,0.3,0.3C-155.9,144.7-155.8,144.6-155.8,144.5z M-156.4,148.5c-0.2,0.3-0.3,0.7-0.4,1.1h-0.1v0.1v0.1
	c-0.1,0.3-0.1,0.6-0.1,0.8h4.6c0-0.1,0-0.2,0-0.3c0.1-0.1,0.1-0.4,0-0.4s0-0.1,0-0.2s0.1-0.2-0.1-0.2c0-0.1,0-0.1,0-0.2
	c0.1-0.1,0.1-0.2-0.1-0.2c-0.1-0.6-0.4-1.1-0.9-1.5c-0.9-0.6-2.1-0.4-2.8,0.4C-156.2,148.3-156.3,148.4-156.4,148.5L-156.4,148.5z"
	/>
<path class="st2" d="M-79.3,144.4c0.4-0.1,0.8-0.1,1.2,0c0.1,0,0.2,0,0.3,0h0.2l0.1,0.1c1.2,0.3,2.2,1,2.8,2.1c0.6,1,0.9,2,1,3.1
	c0,0.1,0,0.2,0,0.4c0,0.1,0,0.3,0,0.4c0,0.7,0,1.4,0,2.1c0,0.3,0,0.6-0.1,0.9c-0.1,0.1-0.1,0.1-0.1,0.2c0,0.1,0,0.2,0,0.2
	c-0.1,0.1-0.1,0.1-0.1,0.2c0,0.2-0.1,0.5-0.2,0.7l-0.1,0.1c-0.4,1.5-1.4,2.7-2.7,3.5c-1.2,0.6-2.5,0.9-3.9,0.7c-0.1,0-0.2,0-0.3,0
	c-0.1,0-0.2,0-0.3,0c-0.1,0-0.1-0.1-0.2-0.1h-0.2l-0.2-0.1c-0.3-0.1-0.6-0.1-0.9-0.2v4c0,0.3,0,0.7,0,1h-0.1l-0.1,0.1
	c-0.1,0-0.3,0.1-0.4,0.1l-0.1,0.1c-0.1,0.1-0.3,0.1-0.4,0.1l-0.1,0.1h-0.2l-0.1,0.1h-0.1l-0.1,0.1c-0.6,0.1-1.2,0.4-1.8,0.5
	l-0.1,0.1c-0.2,0.1-0.4,0.1-0.6,0.1c0-6.3,0-12.7,0-19c0-0.4,0-0.9,0-1.3c1.2,0,2.3,0,3.5,0c0.1,0,0.3,0,0.4,0.1c0,0.1,0,0.3,0,0.4
	c0,0.1,0,0.2,0.1,0.2c0,0.1,0,0.2,0,0.2c0,0.1,0,0.2,0,0.2c0,0.1,0,0.2,0,0.2c0,0.1,0,0.2,0,0.2c0,0,0.1,0.1,0.1,0.1
	c0.8-1,2-1.7,3.3-2C-79.6,144.5-79.4,144.5-79.3,144.4z M-80.8,148.4L-80.8,148.4c-0.7,0.3-1.3,0.8-1.7,1.4c0,0.6,0,1.2,0,1.8
	c0,1.2,0,2.5,0,3.7c0.2,0.1,0.4,0.2,0.6,0.2v0.1h0.2c0,0.1,0.1,0.1,0.2,0.1c0.4,0.1,0.9,0.1,1.3,0.1c0.1,0.1,0.2,0.1,0.2-0.1
	c1-0.2,1.7-1.1,1.9-2.1c0.1,0,0.1-0.1,0.1-0.2c0-0.1,0-0.1,0-0.2c0.1,0,0.1-0.2,0-0.3c0-0.1,0-0.2,0-0.4c0.1-0.2,0-0.5,0-0.7
	s0.1-0.5,0-0.7c0-0.3,0-0.5-0.1-0.8v-0.1v-0.1h-0.1c-0.1-0.6-0.4-1.2-0.9-1.5C-79.7,148.4-80.3,148.3-80.8,148.4L-80.8,148.4
	L-80.8,148.4z"/>
<path class="st2" d="M-130.7,144.5c0.9-0.2,1.8-0.2,2.6-0.1c0.1,0,0.2,0,0.4,0h0.2c0.1,0.1,0.1,0.1,0.2,0.1c0.3,0,0.5,0.1,0.8,0.2
	l0.1,0.1c0.5,0.1,0.9,0.3,1.3,0.6c0,0.1,0,0.2,0,0.4c0,0.1,0,0.2,0,0.2c0,0.1,0,0.2,0,0.4c0,0.1,0,0.2,0,0.3c0,0.1,0,0.2,0,0.4v0.2
	c0,0.1,0,0.3,0,0.4c0,0.1,0,0.2,0,0.3c0,0.1,0,0.2,0,0.4c0,0.1,0,0.2,0,0.2c0,0.1,0,0.2,0,0.4c0,0.1,0,0.2,0,0.3
	c-0.6-0.4-1.3-0.7-2.1-0.9c-0.1,0-0.2,0-0.2,0c-0.7-0.1-1.5-0.1-2.2,0.1c-0.9,0.4-1.6,1.2-1.8,2.2c0,0.1-0.1,0.1-0.1,0.2
	c0,0.6,0,1.2,0,1.8c0,0.1,0,0.2,0.1,0.2c0.1,0.7,0.5,1.3,0.9,1.7c0.4,0.4,0.9,0.6,1.4,0.8c0.1,0.1,0.1,0.1,0.2,0.1
	c0.6,0,1.2,0,1.7-0.1l0.1-0.1c0.6-0.2,1.1-0.4,1.6-0.7c0.1-0.1,0.3-0.2,0.4-0.2c0,0.2,0,0.3,0,0.5c0,0.1,0,0.2,0.1,0.2
	c0,0.1,0,0.2,0,0.2c0,0.1,0,0.2,0.1,0.2c0,0.1,0,0.2,0,0.2c0,0.1,0,0.2,0.1,0.2c0,0.1,0,0.2,0,0.2c0,0.1,0,0.2,0,0.2
	c0,0.1,0,0.2,0,0.2c0,0.1,0,0.2,0.1,0.2c0,0.1,0,0.2,0,0.2c0,0.1,0,0.2,0,0.2c0.1,0.2,0.1,0.4,0.1,0.6c-0.9,0.6-1.9,0.9-2.9,1.1
	c-0.1,0-0.2,0-0.2,0.1c-0.1,0-0.3,0-0.4,0c-0.2,0-0.3,0-0.5,0c-0.3,0-0.6,0-0.8,0c-0.2,0-0.4,0-0.6,0c-0.2,0-0.5,0-0.7-0.1
	c-0.1,0-0.1-0.1-0.2-0.1c-0.5-0.1-0.9-0.2-1.4-0.4c-1.8-0.8-3.1-2.5-3.5-4.4c0-0.1,0-0.1-0.1-0.1V154c0-0.1,0-0.2-0.1-0.2
	c-0.1-0.3-0.1-0.6-0.1-0.8c0-0.7,0-1.3,0-1.9c0-0.1,0-0.2,0-0.3c0-0.1,0-0.2,0-0.3c0-0.1,0-0.2,0-0.3c0-0.1,0-0.1,0.1-0.2
	c0.2-1.4,0.9-2.7,1.9-3.7c0.8-0.8,1.8-1.3,2.9-1.6c0.1,0,0.2,0,0.2-0.1L-130.7,144.5L-130.7,144.5z"/>
<path class="st2" d="M-199.4,159.5l0.2-0.1L-199.4,159.5z"/>
<path class="st2" d="M-203.5,160.7l0.2-0.1L-203.5,160.7z"/>
<path class="st2" d="M-207.6,161.8l0.2-0.1L-207.6,161.8z"/>
<path class="st2" d="M-220.3,163.7l0.1,0.2L-220.3,163.7z"/>
<path class="st2" d="M-215.3,164l0.2-0.1L-215.3,164z"/>
<path class="st2" d="M-219.4,165.1l0.2-0.1L-219.4,165.1z"/>
<rect x="-239" y="124.9" class="st3" width="176" height="49"/>
</svg>
